<?xml version="1.0" encoding="utf-8"?>
<!-- Generator: Adobe Illustrator 23.1.1, SVG Export Plug-In . SVG Version: 6.00 Build 0)  -->
<svg version="1.2" baseProfile="tiny" id="Layer_1" xmlns="http://www.w3.org/2000/svg" xmlns:xlink="http://www.w3.org/1999/xlink"
	 x="0px" y="0px" viewBox="0 0 230 20" xml:space="preserve">
<title>1 PROJECTS</title>
<desc>Created with Sketch.</desc>
<g id="Page-1">
	<g id="Artboard" transform="translate(-120.000000, -469.000000)">
		<text transform="matrix(1 0 0 1 120.5847 491.3721)" fill="#FFFFFF" font-family="'PressStart2P'" font-size="22px">1</text>
		<text transform="matrix(1 0 0 1 143.575 491.3721)" fill="#FFFFFF" font-family="'PressStart2P'" font-size="22px"> </text>
		<text transform="matrix(1 0 0 1 166.5647 491.3721)" fill="#FFFFFF" font-family="'PressStart2P'" font-size="22px">P</text>
		<text transform="matrix(1 0 0 1 189.5549 491.3721)" fill="#FFFFFF" font-family="'PressStart2P'" font-size="22px">R</text>
		<text transform="matrix(1 0 0 1 212.5447 491.3721)" fill="#FFFFFF" font-family="'PressStart2P'" font-size="22px">O</text>
		<text transform="matrix(1 0 0 1 235.5349 491.3721)" fill="#FFFFFF" font-family="'PressStart2P'" font-size="22px">J</text>
		<text transform="matrix(1 0 0 1 258.5247 491.3721)" fill="#FFFFFF" font-family="'PressStart2P'" font-size="22px">E</text>
		<text transform="matrix(1 0 0 1 281.5149 491.3721)" fill="#FFFFFF" font-family="'PressStart2P'" font-size="22px">C</text>
		<text transform="matrix(1 0 0 1 304.5046 491.3721)" fill="#FFFFFF" font-family="'PressStart2P'" font-size="22px">T</text>
		<text transform="matrix(1 0 0 1 327.4949 491.3721)" fill="#FFFFFF" font-family="'PressStart2P'" font-size="22px">S</text>
	</g>
</g>
</svg>
