<?xml version="1.0" encoding="utf-8"?>
<!-- Generator: Adobe Illustrator 23.1.1, SVG Export Plug-In . SVG Version: 6.00 Build 0)  -->
<svg version="1.2" baseProfile="tiny" id="Layer_1" xmlns="http://www.w3.org/2000/svg" xmlns:xlink="http://www.w3.org/1999/xlink"
	 x="0px" y="0px" viewBox="0 0 230 20" xml:space="preserve">
<title>1 PROJECTS</title>
<desc>Created with Sketch.</desc>
<g id="Page-1">
	<g id="Artboard" transform="translate(-120.000000, -469.000000)">
		<text transform="matrix(1 0 0 1 120.5753 491.3721)" fill="#FFFFFF" font-family="'PressStart2P'" font-size="22px">2</text>
		<text transform="matrix(1 0 0 1 143.8072 491.3721)" fill="#FFFFFF" font-family="'PressStart2P'" font-size="22px"> </text>
		<text transform="matrix(1 0 0 1 167.0391 491.3721)" fill="#FFFFFF" font-family="'PressStart2P'" font-size="22px">A</text>
		<text transform="matrix(1 0 0 1 190.2711 491.3721)" fill="#FFFFFF" font-family="'PressStart2P'" font-size="22px">B</text>
		<text transform="matrix(1 0 0 1 213.5035 491.3721)" fill="#FFFFFF" font-family="'PressStart2P'" font-size="22px">O</text>
		<text transform="matrix(1 0 0 1 236.7354 491.3721)" fill="#FFFFFF" font-family="'PressStart2P'" font-size="22px">U</text>
		<text transform="matrix(1 0 0 1 259.9673 491.3721)" fill="#FFFFFF" font-family="'PressStart2P'" font-size="22px">T</text>
		<text transform="matrix(1 0 0 1 283.1993 491.3721)" fill="#FFFFFF" font-family="'PressStart2P'" font-size="22px"> </text>
		<text transform="matrix(1 0 0 1 306.4312 491.3721)" fill="#FFFFFF" font-family="'PressStart2P'" font-size="22px">M</text>
		<text transform="matrix(1 0 0 1 329.6631 491.3721)" fill="#FFFFFF" font-family="'PressStart2P'" font-size="22px">E</text>
	</g>
</g>
</svg>
