<svg xmlns="http://www.w3.org/2000/svg" width="230" height="18" viewBox="0 0 230 18">
  <defs>
    <style>
      .cls-1 {
        fill: #00d8f8;
        stroke: #000;
        stroke-linejoin: round;
        stroke-width: 2px;
        fill-rule: evenodd;
      }
    </style>
  </defs>
  <path id="_2019_INHYECHOI" data-name=" © 2019 INHYECHOI" class="cls-1" d="M9.733,7.536H7.983v3.5h1.75v1.75h3.5v-1.75h-3.5v-3.5h3.5V5.786h-3.5v1.75Zm-1.75-3.5H6.233v1.75H4.483v7h1.75v1.75h1.75v1.75h7v-1.75h1.75v-1.75h1.75v-7h-1.75V4.036h-1.75V2.286h-7v1.75Zm7,1.75h1.75v7h-1.75v1.75h-7v-1.75H6.233v-7h1.75V4.036h7v1.75Zm19.25-1.75h-1.75v1.75h3.5V4.036h5.25v1.75h-1.75v1.75h-3.5v1.75h-1.75v1.75h-1.75v3.5h12.25v-1.75h-7v-1.75h3.5V9.286h1.75V7.536h1.75v-3.5h-1.75V2.286h-8.75v1.75Zm15.75,0h-1.75v1.75h-1.75v5.25h1.75v1.75h1.75v1.75h5.25v-1.75h1.75v-1.75h1.75V5.786h-1.75V4.036h-1.75V2.286h-5.25v1.75Zm3.5,1.75h1.75v7h-3.5v-1.75h-1.75v-7h3.5v1.75Zm12.25-1.75h-1.75v1.75h1.75v7h-3.5v1.75h10.5v-1.75h-3.5V2.286h-3.5v1.75Zm10.5,0h-1.75v3.5h1.75v1.75h7v1.75h-1.75v1.75h-5.25v1.75h7v-1.75h1.75v-1.75h1.75v-7h-1.75V2.286h-8.75v1.75Zm7,3.5h-5.25v-3.5h5.25v3.5Zm21-3.5h3.5v8.75h-3.5v1.75h10.5v-1.75h-3.5V4.036h3.5V2.286h-10.5v1.75Zm12.25,10.5h3.5V9.286h1.75v1.75h1.75v1.75h1.75v1.75h3.5V2.286h-3.5v5.25h-1.75V5.786h-1.75V4.036h-1.75V2.286h-3.5v12.25Zm14,0h3.5V9.286h5.25v5.25h3.5V2.286h-3.5v5.25h-5.25V2.286h-3.5v12.25Zm15.75-7h1.75v1.75h1.75v5.25h3.5V9.286h1.75V7.536h1.75V2.286h-3.5v5.25h-3.5V2.286h-3.5v5.25Zm12.25,7h12.25v-1.75h-8.75v-3.5h7V7.536h-7v-3.5h8.75V2.286h-12.25v12.25Zm17.5-10.5h-1.75v1.75h-1.75v5.25h1.75v1.75h1.75v1.75h7v-1.75h1.75v-1.75h-3.5v1.75h-3.5v-1.75h-1.75V5.786h1.75V4.036h3.5v1.75h3.5V4.036h-1.75V2.286h-7v1.75Zm10.5,10.5h3.5V9.286h5.25v5.25h3.5V2.286h-3.5v5.25h-5.25V2.286h-3.5v12.25Zm15.75-10.5h-1.75v8.75h1.75v1.75h8.75v-1.75h1.75V4.036h-1.75V2.286h-8.75v1.75Zm7,8.75h-5.25V4.036h5.25v8.75Zm7-8.75h3.5v8.75h-3.5v1.75h10.5v-1.75h-3.5V4.036h3.5V2.286h-10.5v1.75Z"/>
</svg>
