<svg xmlns="http://www.w3.org/2000/svg" xmlns:xlink="http://www.w3.org/1999/xlink" width="432" height="152" viewBox="0 0 432 152">
  <defs>
    <style>
      .cls-1, .cls-11, .cls-3, .cls-9 {
        fill: #00c800;
      }

      .cls-1, .cls-10, .cls-11, .cls-12, .cls-13, .cls-14, .cls-16, .cls-2, .cls-3, .cls-4, .cls-5, .cls-6, .cls-7, .cls-8, .cls-9 {
        stroke: #000;
        stroke-linejoin: round;
        strokeWidth: 2px;
      }

      .cls-1, .cls-10, .cls-11, .cls-12, .cls-13, .cls-14, .cls-15, .cls-16, .cls-2, .cls-3, .cls-4, .cls-5, .cls-6, .cls-7, .cls-8, .cls-9 {
        fill-rule: evenodd;
      }

      .cls-1 {
        filter: url(#filter);
      }

      .cls-14, .cls-15, .cls-2, .cls-6 {
        fill: #f83838;
      }

      .cls-2 {
        filter: url(#filter-2);
      }

      .cls-3 {
        filter: url(#filter-3);
      }

      .cls-10, .cls-13, .cls-16, .cls-4, .cls-7 {
        fill: #00d8f8;
      }

      .cls-4 {
        filter: url(#filter-4);
      }

      .cls-12, .cls-5, .cls-8 {
        fill: #f8c828;
      }

      .cls-5 {
        filter: url(#filter-5);
      }

      .cls-6 {
        filter: url(#filter-6);
      }

      .cls-7 {
        filter: url(#filter-7);
      }

      .cls-8 {
        filter: url(#filter-8);
      }

      .cls-9 {
        filter: url(#filter-9);
      }

      .cls-10 {
        filter: url(#filter-10);
      }

      .cls-11 {
        filter: url(#filter-11);
      }

      .cls-12 {
        filter: url(#filter-12);
      }

      .cls-13 {
        filter: url(#filter-13);
      }

      .cls-14 {
        filter: url(#filter-14);
      }
    </style>
    <filter id="filter" x="299" y="86" width="54" height="68" filterUnits="userSpaceOnUse">
      <feOffset result="offset" dy="10" in="SourceAlpha"/>
      <feGaussianBlur result="blur"/>
      <feFlood result="flood"/>
      <feComposite result="composite" operator="in" in2="blur"/>
      <feBlend result="blend" in="SourceGraphic"/>
    </filter>
    <filter id="filter-2" x="253" y="85" width="51" height="69" filterUnits="userSpaceOnUse">
      <feOffset result="offset" dy="10" in="SourceAlpha"/>
      <feGaussianBlur result="blur"/>
      <feFlood result="flood"/>
      <feComposite result="composite" operator="in" in2="blur"/>
      <feBlend result="blend" in="SourceGraphic"/>
    </filter>
    <filter id="filter-3" x="205" y="86" width="59" height="68" filterUnits="userSpaceOnUse">
      <feOffset result="offset" dy="10" in="SourceAlpha"/>
      <feGaussianBlur result="blur"/>
      <feFlood result="flood"/>
      <feComposite result="composite" operator="in" in2="blur"/>
      <feBlend result="blend" in="SourceGraphic"/>
    </filter>
    <filter id="filter-4" x="149" y="86" width="64" height="68" filterUnits="userSpaceOnUse">
      <feOffset result="offset" dy="10" in="SourceAlpha"/>
      <feGaussianBlur result="blur"/>
      <feFlood result="flood"/>
      <feComposite result="composite" operator="in" in2="blur"/>
      <feBlend result="blend" in="SourceGraphic"/>
    </filter>
    <filter id="filter-5" x="75" y="86" width="83" height="68" filterUnits="userSpaceOnUse">
      <feOffset result="offset" dy="10" in="SourceAlpha"/>
      <feGaussianBlur result="blur"/>
      <feFlood result="flood"/>
      <feComposite result="composite" operator="in" in2="blur"/>
      <feBlend result="blend" in="SourceGraphic"/>
    </filter>
    <filter id="filter-6" x="396" y="0" width="33" height="69" filterUnits="userSpaceOnUse">
      <feOffset result="offset" dy="10" in="SourceAlpha"/>
      <feGaussianBlur result="blur"/>
      <feFlood result="flood"/>
      <feComposite result="composite" operator="in" in2="blur"/>
      <feBlend result="blend" in="SourceGraphic"/>
    </filter>
    <filter id="filter-7" x="340" y="0" width="64" height="68" filterUnits="userSpaceOnUse">
      <feOffset result="offset" dy="10" in="SourceAlpha"/>
      <feGaussianBlur result="blur"/>
      <feFlood result="flood"/>
      <feComposite result="composite" operator="in" in2="blur"/>
      <feBlend result="blend" in="SourceGraphic"/>
    </filter>
    <filter id="filter-8" x="291" y="0" width="57" height="68" filterUnits="userSpaceOnUse">
      <feOffset result="offset" dy="10" in="SourceAlpha"/>
      <feGaussianBlur result="blur"/>
      <feFlood result="flood"/>
      <feComposite result="composite" operator="in" in2="blur"/>
      <feBlend result="blend" in="SourceGraphic"/>
    </filter>
    <filter id="filter-9" x="244" y="0" width="56" height="68" filterUnits="userSpaceOnUse">
      <feOffset result="offset" dy="10" in="SourceAlpha"/>
      <feGaussianBlur result="blur"/>
      <feFlood result="flood"/>
      <feComposite result="composite" operator="in" in2="blur"/>
      <feBlend result="blend" in="SourceGraphic"/>
    </filter>
    <filter id="filter-10" x="170" y="0" width="52" height="68" filterUnits="userSpaceOnUse">
      <feOffset result="offset" dy="10" in="SourceAlpha"/>
      <feGaussianBlur result="blur"/>
      <feFlood result="flood"/>
      <feComposite result="composite" operator="in" in2="blur"/>
      <feBlend result="blend" in="SourceGraphic"/>
    </filter>
    <filter id="filter-11" x="118" y="0" width="60" height="68" filterUnits="userSpaceOnUse">
      <feOffset result="offset" dy="10" in="SourceAlpha"/>
      <feGaussianBlur result="blur"/>
      <feFlood result="flood"/>
      <feComposite result="composite" operator="in" in2="blur"/>
      <feBlend result="blend" in="SourceGraphic"/>
    </filter>
    <filter id="filter-12" x="76" y="0" width="57" height="68" filterUnits="userSpaceOnUse">
      <feOffset result="offset" dy="10" in="SourceAlpha"/>
      <feGaussianBlur result="blur"/>
      <feFlood result="flood"/>
      <feComposite result="composite" operator="in" in2="blur"/>
      <feBlend result="blend" in="SourceGraphic"/>
    </filter>
    <filter id="filter-13" x="26" y="1" width="57" height="68" filterUnits="userSpaceOnUse">
      <feOffset result="offset" dy="10" in="SourceAlpha"/>
      <feGaussianBlur result="blur"/>
      <feFlood result="flood"/>
      <feComposite result="composite" operator="in" in2="blur"/>
      <feBlend result="blend" in="SourceGraphic"/>
    </filter>
    <filter id="filter-14" x="0" y="-1" width="33" height="69" filterUnits="userSpaceOnUse">
      <feOffset result="offset" dy="10" in="SourceAlpha"/>
      <feGaussianBlur result="blur"/>
      <feFlood result="flood"/>
      <feComposite result="composite" operator="in" in2="blur"/>
      <feBlend result="blend" in="SourceGraphic"/>
    </filter>
  </defs>
  <g style="fill: #00c800; filter: url(#filter)">
    <path id="D" className="cls-1" d="M330.443,90.259l-26.5,3.24v50.184h29.808l14.9-12.168-3.1-28.872-15.12-12.384h0Zm-10.008,19.224,9.72,4.464V121.8l-9.72,3.384v-15.7h0Z" style="stroke: inherit; filter: none; fill: inherit"/>
  </g>
  <use xlink:href="#D" style="stroke: #000; filter: none; fill: none"/>
  <g style="fill: #f83838; filter: url(#filter-2)">
    <path id="L" className="cls-2" d="M277.963,92.2l-20.016-2.3,2.016,53.28L300,138.427,297.979,121.8l-22.1,2.664L277.963,92.2h0Z" style="stroke: inherit; filter: none; fill: inherit"/>
  </g>
  <use xlink:href="#L" style="stroke: #000; filter: none; fill: none"/>
  <g style="fill: #00c800; filter: url(#filter-3)">
    <path id="R" className="cls-3" d="M239.316,90.619l-29.88,2.3,4.176,50.976h16.56L227.724,130l16.344,13.968,15.624-6.768-13.32-11.736,7.488-8.352-1.224-16.776-13.32-9.72h0Zm-11.592,14.9,8.352,4.464-4.392,6.336-4.392-.576,0.432-10.224h0Z" style="stroke: inherit; filter: none; fill: inherit"/>
  </g>
  <use xlink:href="#R" style="stroke: #000; filter: none; fill: none"/>
  <g style="fill: #00d8f8; filter: url(#filter-4)">
    <path id="O" className="cls-4" d="M193.068,91.051L173.484,90.4l-16.92,10.728-3.384,22.536,22.68,20.016,28.44-7.416,4.464-25.7-15.7-19.512h0ZM177.732,109.2l9,2.016,0.36,7.992-6.7,2.448L174.06,117.4l3.672-8.208h0Z" style="stroke: inherit; filter: none; fill: inherit"/>
  </g>
  <use xlink:href="#O" style="stroke: #000; filter: none; fill: none"/>
  <g style="fill: #f8c828; filter: url(#filter-5)">
    <path id="W" className="cls-5" d="M153.708,95.227l-18-3.888-10.872,26.424-9-13.536-11.88,11.88-3.888-12.744-3.24-13.1L79.692,91.771l13.1,52.056,12.24-.36,7.344-14.544,4.968,14.472H130.74l22.968-48.168h0Z" style="stroke: inherit; filter: none; fill: inherit"/>
  </g>
  <use xlink:href="#W" style="stroke: #000; filter: none; fill: none"/>
  <g style="fill: #f83838; filter: url(#filter-6)">
    <path id="I_" data-name="I " className="cls-6" d="M400.027,5.619L401.9,58.251l22.9-2.52L414,4.755l-13.968.864h0Z" style="stroke: inherit; filter: none; fill: inherit"/>
  </g>
  <use xlink:href="#I_" style="stroke: #000; filter: none; fill: none"/>
  <g style="fill: #00d8f8; filter: url(#filter-7)">
    <path id="O-2" data-name="O" className="cls-7" d="M384.068,5.051L364.484,4.4l-16.92,10.728L344.18,37.667l22.68,20.016,28.44-7.416,4.464-25.7-15.7-19.512h0ZM368.732,23.2l9,2.016,0.36,7.992-6.7,2.448L365.06,31.4l3.672-8.208h0Z" style="stroke: inherit; filter: none; fill: inherit"/>
  </g>
  <use xlink:href="#O-2" style="stroke: #000; filter: none; fill: none"/>
  <g style="fill: #f8c828; filter: url(#filter-8)">
    <path id="H" className="cls-8" d="M295.075,7.571l5.76,49.9h15.624L316.1,42.635l10.08-1.944,0.144,16.2,16.7,0.576-2.88-51.7-14.832-.648-0.648,19.368-10.584,1.584-0.864-21.96L295.075,7.571h0Z" style="stroke: inherit; filter: none; fill: inherit"/>
  </g>
  <use xlink:href="#H" style="stroke: #000; filter: none; fill: none"/>
  <g style="fill: #00c800; filter: url(#filter-9)">
    <path id="C" className="cls-9" d="M271.331,4.259l-16.7,9.144-6.48,16.632,4.176,15.48,14.04,12.312,28.728-2.52-4.9-20.088-14.616,7.632-9.936-6.768,0.5-12.24,11.3-5.256,12.96,6.048L291.2,5.555l-19.872-1.3h0Z" style="stroke: inherit; filter: none; fill: inherit"/>
  </g>
  <use xlink:href="#C" style="stroke: #000; filter: none; fill: none"/>
  <g style="fill: #00d8f8; filter: url(#filter-10)">
    <path id="E" className="cls-10" d="M178.067,4.187L174.179,23.2l3.888,34.416h39.672l-6.12-14.328-16.632-.144-1.224-3.888,13.68-1.224,0.72-11.448-15.336-1.152,0.216-3.672L210.4,19.091l2.952-14.9h-35.28Z" style="stroke: inherit; filter: none; fill: inherit"/>
  </g>
  <use xlink:href="#E" style="stroke: #000; filter: none; fill: none"/>
  <g style="fill: #00c800; filter: url(#filter-11)">
    <path id="Y" className="cls-11" d="M134.419,6.051l-11.808,10.44,17.928,17.136V56.6l28.224,1.3L156.019,31.467l17.208-14.976L157.459,4.611,146.3,18.723,134.419,6.051h0Z" style="stroke: inherit; filter: none; fill: inherit"/>
  </g>
  <use xlink:href="#Y" style="stroke: #000; filter: none; fill: none"/>
  <g style="fill: #f8c828; filter: url(#filter-12)">
    <path id="H-2" data-name="H" className="cls-12" d="M80.075,7.571l5.76,49.9h15.624L101.1,42.635l10.08-1.944,0.144,16.2,16.7,0.576-2.88-51.7-14.832-.648-0.648,19.368L99.083,26.075,98.219,4.115,80.075,7.571h0Z" style="stroke: inherit; filter: none; fill: inherit"/>
  </g>
  <use xlink:href="#H-2" style="stroke: #000; filter: none; fill: none"/>
  <g style="fill: #00d8f8; filter: url(#filter-13)">
    <path id="N" className="cls-13" d="M30.075,57.891l17.064,0.72,3.1-17.208L60.891,57.675l13.824,0.864L78.243,8,61.539,5.4l-0.864,16.7L50.523,5.4H39.651L30.075,57.891h0Z" style="stroke: inherit; filter: none; fill: inherit"/>
  </g>
  <use xlink:href="#N" style="stroke: #000; filter: none; fill: none"/>
  <g style="fill: #f83838; filter: url(#filter-14)">
    <path id="I" className="cls-14" d="M4.027,4.619L5.9,57.251l22.9-2.52L18,3.755,4.027,4.619h0Z" style="stroke: inherit; filter: none; fill: inherit"/>
  </g>
  <use xlink:href="#I" style="stroke: #000; filter: none; fill: none"/>
  <path className="cls-15" d="M392,98"/>
  <path id="TM" className="cls-16" d="M353.958,91.042v6.216l6.1,0.312-1.3,11.3h8.592l-1.656-11.3,6,0.984v-7.2l-17.736-.312h0Zm18.984,15.984,6.744,1.272,4.056-8.616,3.384,4.488,4.416-3.936,1.464,4.224,1.224,4.368,6.408-.528-4.92-17.256-4.488.1-2.976,4.824-1.68-4.8H381.51l-8.568,15.864h0Z"/>
</svg>
